<svg width="45" height="45" viewBox="0 0 45 45" fill="none" xmlns="http://www.w3.org/2000/svg">
<path d="M40.9163 13.9331C40.7438 13.6839 40.5135 13.4802 40.2451 13.3394C39.9766 13.1987 39.6781 13.1251 39.375 13.125H13.7494L11.5856 7.93126C11.3019 7.2473 10.8215 6.66299 10.2053 6.2524C9.58909 5.84182 8.86484 5.62346 8.12438 5.62501H3.75V9.37501H8.12438L17.0194 30.7219C17.1619 31.0634 17.4022 31.3552 17.7102 31.5604C18.0181 31.7656 18.3799 31.875 18.75 31.875H33.75C34.5319 31.875 35.2313 31.3894 35.5069 30.66L41.1319 15.66C41.2382 15.3762 41.2741 15.0708 41.2365 14.77C41.199 14.4693 41.0891 14.1821 40.9163 13.9331V13.9331Z" fill="url(#paint0_linear_4_961)"/>
<path d="M19.6875 39.375C21.2408 39.375 22.5 38.1158 22.5 36.5625C22.5 35.0092 21.2408 33.75 19.6875 33.75C18.1342 33.75 16.875 35.0092 16.875 36.5625C16.875 38.1158 18.1342 39.375 19.6875 39.375Z" fill="url(#paint1_linear_4_961)"/>
<path d="M32.8125 39.375C34.3658 39.375 35.625 38.1158 35.625 36.5625C35.625 35.0092 34.3658 33.75 32.8125 33.75C31.2592 33.75 30 35.0092 30 36.5625C30 38.1158 31.2592 39.375 32.8125 39.375Z" fill="url(#paint2_linear_4_961)"/>
<defs>
<linearGradient id="paint0_linear_4_961" x1="22.5005" y1="5.625" x2="22.5005" y2="31.875" gradientUnits="userSpaceOnUse">
<stop stop-color="#5D9CC6"/>
<stop offset="0.0001" stop-color="#5D9BC6"/>
<stop offset="1" stop-color="#4C52B0"/>
</linearGradient>
<linearGradient id="paint1_linear_4_961" x1="19.6875" y1="33.75" x2="19.6875" y2="39.375" gradientUnits="userSpaceOnUse">
<stop stop-color="#5D9CC6"/>
<stop offset="0.0001" stop-color="#5D9BC6"/>
<stop offset="1" stop-color="#4C52B0"/>
</linearGradient>
<linearGradient id="paint2_linear_4_961" x1="32.8125" y1="33.75" x2="32.8125" y2="39.375" gradientUnits="userSpaceOnUse">
<stop stop-color="#5D9CC6"/>
<stop offset="0.0001" stop-color="#5D9BC6"/>
<stop offset="1" stop-color="#4C52B0"/>
</linearGradient>
</defs>
</svg>
