<svg width="32" height="29" viewBox="0 0 32 29" fill="none" xmlns="http://www.w3.org/2000/svg">
<path d="M13.8618 27.35L11.1306 24.8563C8.33338 22.2966 5.8069 19.7564 3.55118 17.2357C1.2944 14.7161 0.166016 11.9389 0.166016 8.90419C0.166016 6.42364 0.997266 4.35211 2.65977 2.68961C4.32227 1.02711 6.39379 0.195862 8.87435 0.195862C10.273 0.195862 11.5924 0.492473 12.8327 1.08569C14.073 1.67997 15.1285 2.4917 15.9993 3.52086C16.8702 2.4917 17.9257 1.67997 19.166 1.08569C20.4063 0.492473 21.7257 0.195862 23.1243 0.195862C25.6049 0.195862 27.6764 1.02711 29.3389 2.68961C31.0014 4.35211 31.8327 6.42364 31.8327 8.90419C31.8327 11.9389 30.7112 14.7229 28.4681 17.2563C26.225 19.7896 23.6785 22.3361 20.8285 24.8959L18.1368 27.35C17.5299 27.9042 16.8174 28.1813 15.9993 28.1813C15.1813 28.1813 14.4688 27.9042 13.8618 27.35V27.35Z" fill="url(#paint0_linear_40_46)"/>
<defs>
<linearGradient id="paint0_linear_40_46" x1="15.9993" y1="0.195862" x2="15.9993" y2="28.1813" gradientUnits="userSpaceOnUse">
<stop stop-color="#61B1CC"/>
<stop offset="0.957291" stop-color="#4C52B0"/>
</linearGradient>
</defs>
</svg>
