<svg width="72" height="68" viewBox="0 0 72 68" fill="none" xmlns="http://www.w3.org/2000/svg">
<rect x="0.5" y="0.5" width="71" height="67" rx="5.5" fill="#262626"/>
<g clip-path="url(#clip0_5_2098)">
<path d="M53.6176 34.405C53.6176 33.22 53.5126 32.095 53.3326 31H36.3826V37.765H46.0876C45.6526 39.985 44.3776 41.86 42.4876 43.135V47.635H48.2776C51.6676 44.5 53.6176 39.88 53.6176 34.405Z" fill="#4285F4"/>
<path d="M36.3826 52C41.2426 52 45.3076 50.38 48.2776 47.635L42.4876 43.135C40.8676 44.215 38.8126 44.875 36.3826 44.875C31.6876 44.875 27.7126 41.71 26.2876 37.435H20.3176V42.07C23.2726 47.95 29.3476 52 36.3826 52Z" fill="#34A853"/>
<path d="M26.2876 37.435C25.9126 36.355 25.7176 35.2 25.7176 34C25.7176 32.8 25.9276 31.645 26.2876 30.565V25.93H20.3176C19.0876 28.36 18.3826 31.09 18.3826 34C18.3826 36.91 19.0876 39.64 20.3176 42.07L26.2876 37.435Z" fill="#FBBC05"/>
<path d="M36.3826 23.125C39.0376 23.125 41.4076 24.04 43.2826 25.825L48.4126 20.695C45.3076 17.785 41.2426 16 36.3826 16C29.3476 16 23.2726 20.05 20.3176 25.93L26.2876 30.565C27.7126 26.29 31.6876 23.125 36.3826 23.125Z" fill="#EA4335"/>
</g>
<rect x="0.5" y="0.5" width="71" height="67" rx="5.5" stroke="#EBE9F1"/>
<defs>
<clipPath id="clip0_5_2098">
<rect width="36" height="36" fill="white" transform="translate(18 16)"/>
</clipPath>
</defs>
</svg>
