<svg width="413" height="85" viewBox="0 0 413 85" fill="none" xmlns="http://www.w3.org/2000/svg">
<path d="M27.452 65.852C18.4973 65.852 11.72 63.276 7.12 58.124C2.52 52.972 0.22 46.3173 0.22 38.16C0.22 31.2293 1.75333 24.7893 4.82 18.84C6.59867 15.344 8.83733 12.2773 11.536 9.64C14.2347 7.00266 17.884 4.82533 22.484 3.108C27.084 1.39066 32.2973 0.531998 38.124 0.531998C40.0867 0.531998 41.8347 0.715998 43.368 1.084C44.9013 1.452 45.668 1.69733 45.668 1.82C45.668 4.764 45.4533 8.13733 45.024 11.94C44.656 15.6813 44.4413 17.5827 44.38 17.644C44.0733 17.9507 42.7853 18.4413 40.516 19.116C38.308 19.7907 36.652 20.128 35.548 20.128V19.576C35.548 16.816 35.1493 14.884 34.352 13.78C33.5547 12.676 32.1747 12.124 30.212 12.124C25.8573 12.124 21.8093 14.424 18.068 19.024C14.3267 23.5627 12.456 29.8187 12.456 37.792C12.456 42.024 13.4987 45.8267 15.584 49.2C16.688 50.9787 18.2827 52.42 20.368 53.524C22.5147 54.628 25.0293 55.18 27.912 55.18C33.6773 55.18 39.2893 52.512 44.748 47.176C44.9933 47.176 45.484 47.5747 46.22 48.372C47.0173 49.108 47.784 50.12 48.52 51.408C50.0533 53.8613 50.82 55.364 50.82 55.916C50.82 56.468 49.8693 57.5107 47.968 59.044C46.0667 60.516 43.184 62.0187 39.32 63.552C35.456 65.0853 31.5 65.852 27.452 65.852ZM83.0361 48.856C83.0361 53.1627 81.7214 56.9027 79.0921 60.076C76.5081 63.204 72.9721 64.768 68.4841 64.768C64.0414 64.768 60.5507 63.3853 58.0121 60.62C55.4734 57.8547 54.2041 54.2733 54.2041 49.876C54.2041 45.4333 55.7681 41.512 58.8961 38.112C62.0694 34.6667 66.3307 32.944 71.6801 32.944C73.8561 33.0347 75.0347 33.1707 75.2161 33.352C75.3974 33.5333 75.4881 33.964 75.4881 34.644C75.4881 35.324 75.4201 36.072 75.2841 36.888C75.9641 36.888 76.8254 37.296 77.8681 38.112C78.9561 38.8827 79.8401 39.676 80.5201 40.492C81.2001 41.308 81.7894 42.464 82.2881 43.96C82.7867 45.4107 83.0361 47.0427 83.0361 48.856ZM73.1081 44.096C72.0654 43.416 71.0454 43.076 70.0481 43.076H69.5041C69.4134 42.8947 69.3681 42.5093 69.3681 41.92C69.3681 41.3307 69.4361 40.764 69.5721 40.22C67.7134 40.22 65.9681 41.0587 64.3361 42.736C62.7494 44.4133 61.9561 46.748 61.9561 49.74C61.9561 53.276 63.0894 55.724 65.3561 57.084C66.2174 57.628 67.3961 57.9 68.8921 57.9C70.4334 57.9 71.8614 57.1973 73.1761 55.792C74.5361 54.3867 75.2161 52.3013 75.2161 49.536C75.2161 46.7707 74.5134 44.9573 73.1081 44.096ZM88.5016 53.344L88.7736 28.728C88.7736 25.1467 88.7282 22.7213 88.6376 21.452C88.5469 20.1827 88.5016 19.5027 88.5016 19.412C88.5016 18.9587 89.2496 18.4373 90.7456 17.848C92.2869 17.2587 93.6469 16.964 94.8256 16.964C96.0042 16.964 96.5936 17.0547 96.5936 17.236C96.3669 18.9133 96.2536 24.8067 96.2536 34.916L96.1176 51.576C96.1176 54.704 96.1629 56.6307 96.2536 57.356C96.4802 59.3507 97.1376 61.164 98.2256 62.796C98.2256 63.2493 97.2962 63.9747 95.4376 64.972C93.5789 65.9693 91.9922 66.468 90.6776 66.468C90.3149 66.468 89.9069 65.788 89.4536 64.428C89.0002 63.068 88.7282 61.8893 88.6376 60.892C88.5469 59.8947 88.5016 57.3787 88.5016 53.344ZM103.642 53.344L103.914 28.728C103.914 25.1467 103.869 22.7213 103.778 21.452C103.688 20.1827 103.642 19.5027 103.642 19.412C103.642 18.9587 104.39 18.4373 105.886 17.848C107.428 17.2587 108.788 16.964 109.966 16.964C111.145 16.964 111.734 17.0547 111.734 17.236C111.508 18.9133 111.394 24.8067 111.394 34.916L111.258 51.576C111.258 54.704 111.304 56.6307 111.394 57.356C111.621 59.3507 112.278 61.164 113.366 62.796C113.366 63.2493 112.437 63.9747 110.578 64.972C108.72 65.9693 107.133 66.468 105.818 66.468C105.456 66.468 105.048 65.788 104.594 64.428C104.141 63.068 103.869 61.8893 103.778 60.892C103.688 59.8947 103.642 57.3787 103.642 53.344ZM134.491 41.376C134.491 40.0613 133.788 39.404 132.383 39.404C130.524 39.404 128.892 40.356 127.487 42.26C126.081 44.164 125.379 46.4533 125.379 49.128C125.379 49.7627 125.469 50.08 125.651 50.08C127.283 50.0347 129.164 49.1053 131.295 47.292C133.425 45.4333 134.491 43.4613 134.491 41.376ZM140.407 63C138.865 64.0427 135.851 64.564 131.363 64.564C126.875 64.564 123.429 63.2267 121.027 60.552C118.624 57.8773 117.423 54.3187 117.423 49.876C117.423 45.388 118.851 41.512 121.707 38.248C124.608 34.9387 128.665 33.284 133.879 33.284C136.009 33.284 137.959 33.8507 139.727 34.984C141.54 36.1173 142.447 38.112 142.447 40.968C142.447 43.7787 141.2 46.5667 138.707 49.332C136.259 52.0973 132.904 54.2053 128.643 55.656C128.643 56.2 129.187 56.6533 130.275 57.016C131.408 57.3333 132.519 57.492 133.607 57.492C137.052 57.492 139.772 56.88 141.767 55.656C141.812 55.6107 141.88 55.588 141.971 55.588C142.061 55.588 142.107 56.0187 142.107 56.88C142.107 59.5093 141.54 61.5493 140.407 63ZM172.425 46.136L172.561 62.252C172.561 65.788 172.085 68.916 171.133 71.636C170.181 74.4013 169.025 76.532 167.665 78.028C166.305 79.5693 164.741 80.816 162.973 81.768C160.117 83.3547 157.238 84.148 154.337 84.148C154.201 84.148 153.929 83.808 153.521 83.128C153.113 82.448 152.727 81.5187 152.365 80.34C152.002 79.1613 151.821 78.0733 151.821 77.076H153.113C154.019 77.076 154.881 76.9853 155.697 76.804C156.558 76.668 157.601 76.2373 158.825 75.512C160.049 74.7867 161.091 73.8347 161.953 72.656C162.814 71.4773 163.562 69.732 164.197 67.42C164.831 65.108 165.149 62.4107 165.149 59.328C165.149 59.1467 165.126 59.056 165.081 59.056L164.877 59.26C162.973 62.2067 160.003 63.68 155.969 63.68C152.931 63.68 150.506 62.4787 148.693 60.076C146.879 57.6733 145.973 54.976 145.973 51.984C145.973 46.544 147.718 42.056 151.209 38.52C154.699 34.984 159.709 33.216 166.237 33.216C167.823 33.216 168.617 33.3293 168.617 33.556C168.753 34.3267 168.821 35.1653 168.821 36.072L168.753 37.092H169.501C170.951 37.092 171.926 37.228 172.425 37.5V46.136ZM165.013 40.424L163.585 40.22C160.683 40.22 158.371 41.172 156.649 43.076C154.971 44.9347 154.133 47.2693 154.133 50.08C154.133 51.4853 154.541 52.7093 155.357 53.752C156.218 54.7947 157.442 55.316 159.029 55.316C160.661 55.316 162.021 54.6813 163.109 53.412C164.197 52.1427 164.741 51.1227 164.741 50.352C164.741 45.184 164.831 41.8747 165.013 40.424ZM194.389 41.376C194.389 40.0613 193.687 39.404 192.281 39.404C190.423 39.404 188.791 40.356 187.385 42.26C185.98 44.164 185.277 46.4533 185.277 49.128C185.277 49.7627 185.368 50.08 185.549 50.08C187.181 50.0347 189.063 49.1053 191.193 47.292C193.324 45.4333 194.389 43.4613 194.389 41.376ZM200.305 63C198.764 64.0427 195.749 64.564 191.261 64.564C186.773 64.564 183.328 63.2267 180.925 60.552C178.523 57.8773 177.321 54.3187 177.321 49.876C177.321 45.388 178.749 41.512 181.605 38.248C184.507 34.9387 188.564 33.284 193.777 33.284C195.908 33.284 197.857 33.8507 199.625 34.984C201.439 36.1173 202.345 38.112 202.345 40.968C202.345 43.7787 201.099 46.5667 198.605 49.332C196.157 52.0973 192.803 54.2053 188.541 55.656C188.541 56.2 189.085 56.6533 190.173 57.016C191.307 57.3333 192.417 57.492 193.505 57.492C196.951 57.492 199.671 56.88 201.665 55.656C201.711 55.6107 201.779 55.588 201.869 55.588C201.96 55.588 202.005 56.0187 202.005 56.88C202.005 59.5093 201.439 61.5493 200.305 63ZM238.164 56.744C242.274 56.744 246.168 55.548 249.848 53.156C253.528 50.764 255.368 47.9427 255.368 44.692C255.368 42.3613 254.448 40.4293 252.608 38.896C249.419 36.32 244.972 35.032 239.268 35.032C237.858 35.032 237.091 35.0627 236.968 35.124C236.907 35.1853 236.876 38.0373 236.876 43.68C236.876 49.3227 237.152 53.6467 237.704 56.652C237.827 56.7133 237.98 56.744 238.164 56.744ZM245.34 23.9C246.935 23.2253 248.284 22.244 249.388 20.956C250.554 19.6067 251.136 18.2267 251.136 16.816C251.136 15.344 250.707 14.1787 249.848 13.32C248.99 12.4613 247.916 11.8173 246.628 11.388C245.34 10.9587 244.083 10.652 242.856 10.468C241.691 10.284 240.556 10.192 239.452 10.192C238.348 10.192 237.735 10.2533 237.612 10.376C237.551 10.4373 237.428 12.952 237.244 17.92C237.122 22.8267 237.06 25.4333 237.06 25.74C237.122 25.8013 237.428 25.832 237.98 25.832C238.594 25.832 239.575 25.6787 240.924 25.372C242.274 25.004 243.746 24.5133 245.34 23.9ZM225.376 50.12L225.836 14.976C225.836 12.5227 225.775 11.2347 225.652 11.112C224.978 10.4373 224.088 8.96533 222.984 6.696C221.88 4.36533 221.328 2.86266 221.328 2.188L221.42 1.912C221.788 1.60533 223.72 1.32933 227.216 1.084C230.774 0.838663 234.27 0.715996 237.704 0.715996C241.2 0.715996 244.39 0.930663 247.272 1.36C250.155 1.78933 252.946 2.464 255.644 3.384C258.404 4.304 260.612 5.684 262.268 7.524C263.924 9.30267 264.752 11.3267 264.752 13.596C264.752 15.804 264.262 17.828 263.28 19.668C262.36 21.4467 261.195 22.9493 259.784 24.176C257.638 26.016 255.552 27.4267 253.528 28.408C253.406 28.5307 253.344 28.6227 253.344 28.684C253.406 28.7453 253.835 28.8987 254.632 29.144C255.491 29.3893 256.288 29.696 257.024 30.064C257.822 30.3707 258.772 30.8 259.876 31.352C260.98 31.904 261.992 32.5787 262.912 33.376C263.832 34.112 264.691 34.9707 265.488 35.952C267.267 38.0373 268.156 40.8893 268.156 44.508C268.156 48.0653 267.052 51.408 264.844 54.536C262.636 57.664 259.692 60.1173 256.012 61.896C248.652 65.4533 240.28 67.232 230.896 67.232L226.204 66.956C226.02 66.7107 225.836 64.5027 225.652 60.332C225.468 56.1 225.376 52.696 225.376 50.12ZM298.602 47.836C298.602 53.5027 298.67 56.812 298.806 57.764C299.168 60.2573 299.939 62.048 301.118 63.136C301.118 63.6347 300.211 64.3827 298.398 65.38C296.63 66.3773 295.02 66.876 293.57 66.876C293.162 66.876 292.731 66.264 292.278 65.04C291.824 63.8613 291.552 62.9773 291.462 62.388C291.416 61.7987 291.371 61.504 291.326 61.504L291.122 61.64C288.719 63.544 285.908 64.496 282.69 64.496C279.471 64.496 276.978 63.7253 275.21 62.184C273.487 60.5973 272.626 58.5347 272.626 55.996C272.626 53.4573 273.17 51.3267 274.258 49.604C275.391 47.836 276.706 46.4987 278.202 45.592C279.698 44.6853 281.352 43.96 283.166 43.416C285.931 42.5093 288.107 42.056 289.694 42.056L289.83 41.988C289.83 39.7667 287.019 38.656 281.398 38.656C279.176 38.656 277.522 38.7467 276.434 38.928H276.366C276.366 38.0213 276.638 36.888 277.182 35.528C277.771 34.168 278.247 33.284 278.61 32.876C279.018 32.468 280.65 32.264 283.506 32.264C288.674 32.264 292.482 33.2613 294.93 35.256C297.378 37.2053 298.602 40.2427 298.602 44.368V47.836ZM291.054 52.188V49.604C291.054 48.6067 291.031 48.108 290.986 48.108C287.948 48.108 285.319 48.9013 283.098 50.488C281.692 51.4853 280.99 52.732 280.99 54.228C280.99 55.18 281.33 55.9733 282.01 56.608C282.69 57.2427 283.71 57.56 285.07 57.56C286.475 57.56 287.812 57.152 289.082 56.336C290.396 55.52 291.054 54.1373 291.054 52.188ZM327.597 63.34C325.875 63.204 323.563 63.136 320.661 63.136C315.312 63.136 310.733 63.4533 306.925 64.088L305.021 64.36C304.659 64.36 304.228 63.7253 303.729 62.456C303.231 61.1867 302.981 60.076 302.981 59.124C303.435 57.492 305.429 54.364 308.965 49.74C312.501 45.116 315.131 41.988 316.853 40.356C317.261 39.948 316.287 39.608 313.929 39.336C311.572 39.064 309.509 38.928 307.741 38.928C306.019 38.928 304.953 38.9507 304.545 38.996C304.545 36.8653 304.749 35.3467 305.157 34.44C305.611 33.5333 305.905 33.012 306.041 32.876C306.449 32.468 308.444 32.264 312.025 32.264C315.652 32.264 318.984 32.4227 322.021 32.74C325.059 33.0573 326.713 33.352 326.985 33.624C327.847 34.8933 328.277 36.7293 328.277 39.132C325.92 40.9 323.2 43.8467 320.117 47.972C317.035 52.0973 315.493 54.6133 315.493 55.52C317.261 55.52 319.823 55.6787 323.177 55.996C326.577 56.3133 328.413 56.6307 328.685 56.948V57.696C328.685 60.7333 328.323 62.6147 327.597 63.34ZM356.551 63.34C354.828 63.204 352.516 63.136 349.615 63.136C344.265 63.136 339.687 63.4533 335.879 64.088L333.975 64.36C333.612 64.36 333.181 63.7253 332.683 62.456C332.184 61.1867 331.935 60.076 331.935 59.124C332.388 57.492 334.383 54.364 337.919 49.74C341.455 45.116 344.084 41.988 345.807 40.356C346.215 39.948 345.24 39.608 342.883 39.336C340.525 39.064 338.463 38.928 336.695 38.928C334.972 38.928 333.907 38.9507 333.499 38.996C333.499 36.8653 333.703 35.3467 334.111 34.44C334.564 33.5333 334.859 33.012 334.995 32.876C335.403 32.468 337.397 32.264 340.979 32.264C344.605 32.264 347.937 32.4227 350.975 32.74C354.012 33.0573 355.667 33.352 355.939 33.624C356.8 34.8933 357.231 36.7293 357.231 39.132C354.873 40.9 352.153 43.8467 349.071 47.972C345.988 52.0973 344.447 54.6133 344.447 55.52C346.215 55.52 348.776 55.6787 352.131 55.996C355.531 56.3133 357.367 56.6307 357.639 56.948V57.696C357.639 60.7333 357.276 62.6147 356.551 63.34ZM386.723 47.836C386.723 53.5027 386.791 56.812 386.927 57.764C387.29 60.2573 388.06 62.048 389.239 63.136C389.239 63.6347 388.332 64.3827 386.519 65.38C384.751 66.3773 383.142 66.876 381.691 66.876C381.283 66.876 380.852 66.264 380.399 65.04C379.946 63.8613 379.674 62.9773 379.583 62.388C379.538 61.7987 379.492 61.504 379.447 61.504L379.243 61.64C376.84 63.544 374.03 64.496 370.811 64.496C367.592 64.496 365.099 63.7253 363.331 62.184C361.608 60.5973 360.747 58.5347 360.747 55.996C360.747 53.4573 361.291 51.3267 362.379 49.604C363.512 47.836 364.827 46.4987 366.323 45.592C367.819 44.6853 369.474 43.96 371.287 43.416C374.052 42.5093 376.228 42.056 377.815 42.056L377.951 41.988C377.951 39.7667 375.14 38.656 369.519 38.656C367.298 38.656 365.643 38.7467 364.555 38.928H364.487C364.487 38.0213 364.759 36.888 365.303 35.528C365.892 34.168 366.368 33.284 366.731 32.876C367.139 32.468 368.771 32.264 371.627 32.264C376.795 32.264 380.603 33.2613 383.051 35.256C385.499 37.2053 386.723 40.2427 386.723 44.368V47.836ZM379.175 52.188V49.604C379.175 48.6067 379.152 48.108 379.107 48.108C376.07 48.108 373.44 48.9013 371.219 50.488C369.814 51.4853 369.111 52.732 369.111 54.228C369.111 55.18 369.451 55.9733 370.131 56.608C370.811 57.2427 371.831 57.56 373.191 57.56C374.596 57.56 375.934 57.152 377.203 56.336C378.518 55.52 379.175 54.1373 379.175 52.188ZM393.794 53.82L393.658 38.384C393.658 35.7093 393.748 34.2813 393.93 34.1C394.428 33.6013 395.29 33.1707 396.514 32.808C397.738 32.4 398.871 32.196 399.914 32.196C401.002 32.196 401.546 32.3093 401.546 32.536C401.41 33.76 401.342 35.1653 401.342 36.752C401.342 38.2933 401.387 39.064 401.478 39.064C401.568 39.064 401.659 39.0187 401.75 38.928C401.84 38.792 401.976 38.6107 402.158 38.384C402.384 38.112 402.815 37.6587 403.45 37.024C404.13 36.3893 404.855 35.8453 405.626 35.392C407.575 34.1227 409.66 33.488 411.882 33.488C412.244 34.0773 412.426 34.984 412.426 36.208C412.426 38.792 412.108 40.628 411.474 41.716L411.202 42.26L410.318 42.124C407.054 42.124 404.492 43.4613 402.634 46.136C401.908 47.224 401.546 48.04 401.546 48.584V54.568C401.546 60.008 401.478 62.796 401.342 62.932C400.072 64.156 397.579 64.768 393.862 64.768C393.499 64.768 393.318 64.7 393.318 64.564C393.635 62.796 393.794 59.2147 393.794 53.82Z" fill="url(#paint0_linear_11_3617)"/>
<defs>
<linearGradient id="paint0_linear_11_3617" x1="205" y1="26" x2="205" y2="50" gradientUnits="userSpaceOnUse">
<stop stop-color="#5D9CC6"/>
<stop offset="1" stop-color="#4E5BB3"/>
</linearGradient>
</defs>
</svg>
