<svg width="30" height="28" viewBox="0 0 30 28" fill="none" xmlns="http://www.w3.org/2000/svg">
<path d="M17.5 22.75C22.2137 22.75 24.5712 22.75 26.035 21.285C27.5 19.8212 27.5 17.4637 27.5 12.75C27.5 8.03625 27.5 5.67875 26.035 4.215C24.5712 2.75 22.2137 2.75 17.5 2.75H12.5C7.78625 2.75 5.42875 2.75 3.965 4.215C2.5 5.67875 2.5 8.03625 2.5 12.75C2.5 17.4637 2.5 19.8212 3.965 21.285C4.78125 22.1025 5.875 22.4638 7.5 22.6225" stroke="white" stroke-width="4" stroke-linecap="round" stroke-linejoin="round"/>
<path d="M11.25 12.75L14.0625 15.25L18.75 10.25" stroke="white" stroke-width="4" stroke-linecap="round" stroke-linejoin="round"/>
<path d="M17.5001 22.75C15.9551 22.75 14.2526 23.375 12.6988 24.1813C10.2013 25.4775 8.95256 26.1263 8.33756 25.7125C7.72256 25.3 7.83881 24.0187 8.07256 21.4575L8.12506 20.875" stroke="white" stroke-width="4" stroke-linecap="round"/>
</svg>
