<svg width="26" height="26" viewBox="0 0 26 26" fill="none" xmlns="http://www.w3.org/2000/svg">
<path d="M20.5833 11.9166H5.41667C4.22005 11.9166 3.25 12.8867 3.25 14.0833V21.6666C3.25 22.8632 4.22005 23.8333 5.41667 23.8333H20.5833C21.78 23.8333 22.75 22.8632 22.75 21.6666V14.0833C22.75 12.8867 21.78 11.9166 20.5833 11.9166Z" stroke="#ACACAC" stroke-width="2" stroke-linecap="round" stroke-linejoin="round"/>
<path d="M7.58398 11.9166V7.58329C7.58398 6.1467 8.15467 4.76895 9.17049 3.75313C10.1863 2.73731 11.5641 2.16663 13.0007 2.16663C14.4372 2.16663 15.815 2.73731 16.8308 3.75313C17.8466 4.76895 18.4173 6.1467 18.4173 7.58329V11.9166" stroke="#ACACAC" stroke-width="2" stroke-linecap="round" stroke-linejoin="round"/>
</svg>
