<svg width="21" height="23" viewBox="0 0 21 23" fill="none" xmlns="http://www.w3.org/2000/svg">
<path d="M10.3327 10.3333C9.09501 10.3333 7.90802 9.84167 7.03285 8.9665C6.15768 8.09133 5.66602 6.90434 5.66602 5.66667C5.66602 4.42899 6.15768 3.242 7.03285 2.36683C7.90802 1.49167 9.09501 1 10.3327 1C11.5704 1 12.7573 1.49167 13.6325 2.36683C14.5077 3.242 14.9994 4.42899 14.9994 5.66667C14.9994 6.90434 14.5077 8.09133 13.6325 8.9665C12.7573 9.84167 11.5704 10.3333 10.3327 10.3333Z" stroke="#ACACAC" stroke-width="2" stroke-linecap="round"/>
<path d="M1 22V20.8334C1 18.9769 1.7375 17.1964 3.05025 15.8836C4.36301 14.5709 6.14348 13.8334 8 13.8334H12.6667C14.5232 13.8334 16.3037 14.5709 17.6164 15.8836C18.9292 17.1964 19.6667 18.9769 19.6667 20.8334V22" stroke="#ACACAC" stroke-width="2" stroke-linecap="round"/>
</svg>
